<?xml version="1.0" encoding="UTF-8"?>
<!DOCTYPE svg PUBLIC "-//W3C//DTD SVG 1.1//EN" "http://www.w3.org/Graphics/SVG/1.1/DTD/svg11.dtd">
<!-- Creator: CorelDRAW X8 -->
<svg xmlns="http://www.w3.org/2000/svg" xml:space="preserve" width="174.406mm" height="63.0121mm" version="1.1" style="shape-rendering:geometricPrecision; text-rendering:geometricPrecision; image-rendering:optimizeQuality; fill-rule:evenodd; clip-rule:evenodd"
viewBox="0 0 4527 1636"
 xmlns:xlink="http://www.w3.org/1999/xlink">
 <defs>
  <style type="text/css">
   <![CDATA[
    .fil0 {fill:white}
   ]]>
  </style>
 </defs>
 <g id="Layer_x0020_1">
  <metadata id="CorelCorpID_0Corel-Layer"/>
  <path class="fil0" d="M777 1215l0 -887 53 0c36,-111 112,-182 213,-224 -9,-21 -21,-39 -36,-54 -32,-33 -87,-50 -165,-50l-839 0c-2,0 -3,1 -3,4l0 89c0,93 18,156 55,189 32,31 96,46 193,46l245 0 0 1c-32,6 -75,15 -129,27 -51,8 -77,14 -77,19l0 1257c0,2 2,4 4,4l116 0c154,0 258,-41 312,-124 39,-51 58,-150 58,-297z"/>
  <path class="fil0" d="M1455 795l0 356c0,22 -18,35 -53,38l-7 0 -4 3 -2 -3 -7 0c-8,0 -12,0 -14,-2 -93,-20 -67,-262 -19,-310 42,-39 77,-67 106,-82zm-459 0c-89,90 -134,196 -134,319l0 42c0,55 9,104 28,148 43,108 145,161 307,161 118,0 207,-47 268,-141 0,18 4,34 12,49 23,45 100,68 229,68l54 0c-4,0 -5,-1 -5,-3l0 -326c0,-414 6,-650 18,-708 10,-42 24,-79 42,-112 13,-24 29,-46 47,-67 -82,-113 -238,-170 -467,-170 -305,0 -533,110 -533,442l0 187 3 3c127,-24 225,-49 292,-76 71,-33 115,-71 131,-114 4,-81 9,-133 15,-158 11,-32 39,-39 70,-39 87,0 82,94 82,161 -2,73 -7,111 -15,115 0,14 -53,42 -160,81 -135,40 -229,86 -284,138z"/>
  <path class="fil0" d="M1808 404c-13,58 -19,294 -19,708l0 326c0,2 2,3 5,3l134 0c101,0 174,-14 219,-42 80,-45 120,-148 120,-311l2 -374 0 -186c0,-91 -18,-186 77,-186l2 0c23,0 39,10 50,30 10,20 15,84 15,191l0 875c0,2 1,3 3,3l132 0c95,0 166,-12 212,-36 86,-42 128,-145 128,-308l2 -382 3 -1c0,0 -2,-52 -2,-116l0 -33c0,-95 -24,-223 77,-223l2 0c11,0 22,4 33,11 20,8 31,58 31,151l0 492c0,180 16,291 50,334 36,74 133,111 292,111l131 0c3,0 5,-1 5,-3l0 -683c0,-198 -8,-323 -24,-378 -32,-96 -83,-168 -153,-216 -100,-67 -219,-100 -358,-100l-32 0c-107,0 -205,21 -292,63 -94,-42 -194,-63 -298,-63l-30 0c-78,0 -152,11 -223,34 -121,44 -206,109 -253,197 -18,33 -32,70 -41,112z"/>
  <path class="fil0" d="M3902 339c28,-78 152,-61 152,122 -2,73 -7,111 -15,115 0,14 -53,42 -160,81 -134,40 -229,86 -284,138 -18,19 -35,38 -49,58l0 535c54,52 138,77 250,77 118,0 208,-47 269,-141 0,18 4,34 12,49 23,45 99,68 228,68l217 0c3,0 5,-1 5,-3l0 -668c0,-143 -3,-241 -9,-296 0,-83 -11,-154 -34,-214 -74,-136 -238,-205 -490,-205 -172,0 -306,39 -402,118 -46,29 -79,72 -101,130 12,23 22,48 31,74 13,46 21,144 23,294 89,-19 159,-39 211,-60 72,-33 115,-71 131,-114 4,-81 10,-133 15,-158zm65 848c-93,-20 -67,-262 -18,-310 42,-39 77,-67 105,-82l0 356c0,22 -17,35 -53,38l-7 0 -3 3 -3 -3 -6 0c-8,0 -13,0 -15,-2z"/>
 </g>
</svg>
